<svg id="Logo" xmlns="http://www.w3.org/2000/svg" viewBox="0 0 189.08 41.87"><defs><style>.cls-1{fill:#808184;}.cls-2{fill:#00a89f;}.cls-3{fill:#003d7f;}</style></defs><g id="RWS"><path class="cls-1" d="M122.07,81.41,111.94,67.22h-9.06V81.41H95.71V40.71H114a21.08,21.08,0,0,1,6.37.9,13.72,13.72,0,0,1,4.81,2.56,10.93,10.93,0,0,1,3,4.07,13.17,13.17,0,0,1,1.06,5.37,13.48,13.48,0,0,1-.73,4.57,11.82,11.82,0,0,1-2,3.55,12.16,12.16,0,0,1-3.08,2.61,15.4,15.4,0,0,1-4,1.66l11.09,15.41Zm-2.36-32.53a10.11,10.11,0,0,0-6.3-1.72H102.88V60.88h10.59A9.56,9.56,0,0,0,119.66,59,6.16,6.16,0,0,0,122,54,6,6,0,0,0,119.71,48.88Z" transform="translate(-40.71 -40.12)"/><path class="cls-1" d="M161.22,40.59h6.11l10.09,30.29,9.81-30.17h7.57l-14.32,41h-6.23L164.16,52.45,154.06,81.7h-6.22l-14.32-41h7.8l9.81,30.17Z" transform="translate(-40.71 -40.12)"/><path class="cls-1" d="M207.19,53.44a4.21,4.21,0,0,0,1.5,1.63,11.75,11.75,0,0,0,3,1.39q1.91.65,4.85,1.34a47.85,47.85,0,0,1,5.74,1.8A14.37,14.37,0,0,1,226.43,62a9.52,9.52,0,0,1,2.5,3.31,10.71,10.71,0,0,1,.85,4.45A12,12,0,0,1,228.71,75a10.88,10.88,0,0,1-3,3.84,13.32,13.32,0,0,1-4.62,2.39,20.52,20.52,0,0,1-5.92.81,26,26,0,0,1-9.1-1.6,24.65,24.65,0,0,1-8-4.91l4.34-5.12a25.13,25.13,0,0,0,6,3.93,16.76,16.76,0,0,0,6.92,1.36,9.07,9.07,0,0,0,5.32-1.39,4.4,4.4,0,0,0,2-3.78,5,5,0,0,0-.38-2,4.1,4.1,0,0,0-1.41-1.6A12.25,12.25,0,0,0,218,65.53a47.6,47.6,0,0,0-4.68-1.33,51,51,0,0,1-5.85-1.69,15,15,0,0,1-4.3-2.32,9.34,9.34,0,0,1-2.65-3.38,11.55,11.55,0,0,1-.91-4.82,11.06,11.06,0,0,1,1-4.86,11.48,11.48,0,0,1,2.88-3.75A12.68,12.68,0,0,1,208,41a18.11,18.11,0,0,1,5.63-.85,23.74,23.74,0,0,1,8.13,1.31,24.53,24.53,0,0,1,6.78,3.81l-3.87,5.41A25.27,25.27,0,0,0,219,47.54a15.19,15.19,0,0,0-5.57-1.08,7.67,7.67,0,0,0-4.94,1.43,4.31,4.31,0,0,0-1.76,3.46A4.78,4.78,0,0,0,207.19,53.44Z" transform="translate(-40.71 -40.12)"/><rect class="cls-2" y="0.58" width="18.94" height="18.94"/><path class="cls-3" d="M48.8,61.06A12.26,12.26,0,1,0,61.06,48.79,12.26,12.26,0,0,0,48.8,61.06Z" transform="translate(-40.71 -40.12)"/><rect class="cls-2" y="22.34" width="18.94" height="18.94"/><rect class="cls-2" x="21.77" y="0.58" width="18.94" height="18.94"/></g></svg>